<svg xmlns="http://www.w3.org/2000/svg" viewBox="0 0 100 100">
  <defs>
    <linearGradient id="cloudGradient" x1="0%" y1="0%" x2="100%" y2="100%">
      <stop offset="0%" style="stop-color:#2196F3;stop-opacity:1" />
      <stop offset="100%" style="stop-color:#1976D2;stop-opacity:1" />
    </linearGradient>
  </defs>
  <!-- Cloud shape -->
  <path fill="url(#cloudGradient)" d="M80,45 c0-11-9-20-20-20 c-8.5,0-15.8,5.3-18.7,12.8 C39.5,36.6,37.4,36,35,36 c-7.7,0-14,6.3-14,14 c0,0.7,0.1,1.4,0.2,2.1 C14.5,53.5,10,59,10,65.5 C10,74,17,81,25.5,81 h49 C83.6,81,91,73.6,91,64.5 C91,56.5,86.4,49.7,80,47 V45z"/>
  <!-- Sparkle/clean effect -->
  <path fill="white" opacity="0.8" d="M55,50 l3-8 l3,8 l8,3 l-8,3 l-3,8 l-3-8 l-8-3 z"/>
  <path fill="white" opacity="0.6" d="M35,40 l2-5 l2,5 l5,2 l-5,2 l-2,5 l-2-5 l-5-2 z"/>
</svg>
